<svg width="13" height="13" viewBox="0 0 13 13" fill="none" xmlns="http://www.w3.org/2000/svg">
<path d="M5.60326 0.816985C5.97008 0.0737389 7.02992 0.0737404 7.39674 0.816986L8.61847 3.29249C8.76413 3.58763 9.0457 3.7922 9.37141 3.83953L12.1033 4.2365C12.9235 4.35568 13.251 5.36365 12.6575 5.94219L10.6807 7.8691C10.445 8.09884 10.3375 8.42984 10.3931 8.75423L10.8598 11.4751C10.9999 12.292 10.1424 12.9149 9.40881 12.5293L6.96534 11.2446C6.67402 11.0915 6.32598 11.0915 6.03466 11.2446L3.59119 12.5293C2.85756 12.9149 2.00013 12.292 2.14024 11.4751L2.6069 8.75423C2.66254 8.42984 2.55499 8.09884 2.31931 7.8691L0.342496 5.94219C-0.251021 5.36365 0.0764905 4.35568 0.896711 4.2365L3.62859 3.83953C3.9543 3.7922 4.23587 3.58763 4.38153 3.29249L5.60326 0.816985Z" fill="#FF6633"/>
</svg>
